<svg width="372" height="184" viewBox="0 0 372 184" fill="none" xmlns="http://www.w3.org/2000/svg">
<circle cx="3.49412" cy="3.49412" r="3.49412" fill="#6BB42F" fill-opacity="0.25"/>
<circle cx="18.247" cy="3.49412" r="3.49412" fill="#6BB42F" fill-opacity="0.25"/>
<circle cx="33" cy="3.49412" r="3.49412" fill="#6BB42F" fill-opacity="0.25"/>
<circle cx="47.753" cy="3.49412" r="3.49412" fill="#6BB42F" fill-opacity="0.25"/>
<circle cx="62.5059" cy="3.49412" r="3.49412" fill="#6BB42F" fill-opacity="0.25"/>
<circle cx="3.49412" cy="18.247" r="3.49412" fill="#6BB42F" fill-opacity="0.25"/>
<circle cx="18.247" cy="18.247" r="3.49412" fill="#6BB42F" fill-opacity="0.25"/>
<circle cx="33" cy="18.247" r="3.49412" fill="#6BB42F" fill-opacity="0.25"/>
<circle cx="47.753" cy="18.247" r="3.49412" fill="#6BB42F" fill-opacity="0.25"/>
<circle cx="62.5059" cy="18.247" r="3.49412" fill="#6BB42F" fill-opacity="0.25"/>
<circle cx="3.49412" cy="33" r="3.49412" fill="#6BB42F" fill-opacity="0.25"/>
<circle cx="18.247" cy="33" r="3.49412" fill="#6BB42F" fill-opacity="0.25"/>
<circle cx="33" cy="33" r="3.49412" fill="#6BB42F" fill-opacity="0.25"/>
<circle cx="47.753" cy="33" r="3.49412" fill="#6BB42F" fill-opacity="0.25"/>
<circle cx="62.5059" cy="33" r="3.49412" fill="#6BB42F" fill-opacity="0.25"/>
<circle cx="3.49412" cy="47.7529" r="3.49412" fill="#6BB42F" fill-opacity="0.25"/>
<circle cx="18.247" cy="47.7529" r="3.49412" fill="#6BB42F" fill-opacity="0.25"/>
<circle cx="33" cy="47.7529" r="3.49412" fill="#6BB42F" fill-opacity="0.25"/>
<circle cx="47.753" cy="47.7529" r="3.49412" fill="#6BB42F" fill-opacity="0.25"/>
<circle cx="62.5059" cy="47.7529" r="3.49412" fill="#6BB42F" fill-opacity="0.25"/>
<circle cx="3.49412" cy="62.5058" r="3.49412" fill="#6BB42F" fill-opacity="0.25"/>
<circle cx="18.247" cy="62.5058" r="3.49412" fill="#6BB42F" fill-opacity="0.25"/>
<circle cx="33" cy="62.5058" r="3.49412" fill="#6BB42F" fill-opacity="0.25"/>
<circle cx="47.753" cy="62.5058" r="3.49412" fill="#6BB42F" fill-opacity="0.25"/>
<circle cx="62.5059" cy="62.5058" r="3.49412" fill="#6BB42F" fill-opacity="0.25"/>
<circle cx="62.4941" cy="62.4941" r="3.49412" fill="#6BB42F" fill-opacity="0.25"/>
<circle cx="77.247" cy="62.4941" r="3.49412" fill="#6BB42F" fill-opacity="0.25"/>
<circle cx="92" cy="62.4941" r="3.49412" fill="#6BB42F" fill-opacity="0.25"/>
<circle cx="106.753" cy="62.4941" r="3.49412" fill="#6BB42F" fill-opacity="0.25"/>
<circle cx="121.506" cy="62.4941" r="3.49412" fill="#6BB42F" fill-opacity="0.25"/>
<circle cx="62.4941" cy="77.247" r="3.49412" fill="#6BB42F" fill-opacity="0.25"/>
<circle cx="77.247" cy="77.247" r="3.49412" fill="#6BB42F" fill-opacity="0.25"/>
<circle cx="92" cy="77.247" r="3.49412" fill="#6BB42F" fill-opacity="0.25"/>
<circle cx="106.753" cy="77.247" r="3.49412" fill="#6BB42F" fill-opacity="0.25"/>
<circle cx="121.506" cy="77.247" r="3.49412" fill="#6BB42F" fill-opacity="0.25"/>
<circle cx="62.4941" cy="92" r="3.49412" fill="#6BB42F" fill-opacity="0.25"/>
<circle cx="77.247" cy="92" r="3.49412" fill="#6BB42F" fill-opacity="0.25"/>
<circle cx="92" cy="92" r="3.49412" fill="#6BB42F" fill-opacity="0.25"/>
<circle cx="106.753" cy="92" r="3.49412" fill="#6BB42F" fill-opacity="0.25"/>
<circle cx="121.506" cy="92" r="3.49412" fill="#6BB42F" fill-opacity="0.25"/>
<circle cx="62.4941" cy="106.753" r="3.49412" fill="#6BB42F" fill-opacity="0.25"/>
<circle cx="77.247" cy="106.753" r="3.49412" fill="#6BB42F" fill-opacity="0.25"/>
<circle cx="92" cy="106.753" r="3.49412" fill="#6BB42F" fill-opacity="0.25"/>
<circle cx="106.753" cy="106.753" r="3.49412" fill="#6BB42F" fill-opacity="0.25"/>
<circle cx="121.506" cy="106.753" r="3.49412" fill="#6BB42F" fill-opacity="0.25"/>
<circle cx="62.4941" cy="121.506" r="3.49412" fill="#6BB42F" fill-opacity="0.25"/>
<circle cx="77.247" cy="121.506" r="3.49412" fill="#6BB42F" fill-opacity="0.25"/>
<circle cx="92" cy="121.506" r="3.49412" fill="#6BB42F" fill-opacity="0.25"/>
<circle cx="106.753" cy="121.506" r="3.49412" fill="#6BB42F" fill-opacity="0.25"/>
<circle cx="121.506" cy="121.506" r="3.49412" fill="#6BB42F" fill-opacity="0.25"/>
<circle cx="3.49412" cy="121.494" r="3.49412" fill="#6BB42F" fill-opacity="0.25"/>
<circle cx="18.247" cy="121.494" r="3.49412" fill="#6BB42F" fill-opacity="0.25"/>
<circle cx="33" cy="121.494" r="3.49412" fill="#6BB42F" fill-opacity="0.25"/>
<circle cx="47.753" cy="121.494" r="3.49412" fill="#6BB42F" fill-opacity="0.25"/>
<circle cx="62.5059" cy="121.494" r="3.49412" fill="#6BB42F" fill-opacity="0.25"/>
<circle cx="3.49412" cy="136.247" r="3.49412" fill="#6BB42F" fill-opacity="0.25"/>
<circle cx="18.247" cy="136.247" r="3.49412" fill="#6BB42F" fill-opacity="0.25"/>
<circle cx="33" cy="136.247" r="3.49412" fill="#6BB42F" fill-opacity="0.25"/>
<circle cx="47.753" cy="136.247" r="3.49412" fill="#6BB42F" fill-opacity="0.25"/>
<circle cx="62.5059" cy="136.247" r="3.49412" fill="#6BB42F" fill-opacity="0.25"/>
<circle cx="3.49412" cy="151" r="3.49412" fill="#6BB42F" fill-opacity="0.25"/>
<circle cx="18.247" cy="151" r="3.49412" fill="#6BB42F" fill-opacity="0.25"/>
<circle cx="33" cy="151" r="3.49412" fill="#6BB42F" fill-opacity="0.25"/>
<circle cx="47.753" cy="151" r="3.49412" fill="#6BB42F" fill-opacity="0.25"/>
<circle cx="62.5059" cy="151" r="3.49412" fill="#6BB42F" fill-opacity="0.25"/>
<circle cx="3.49412" cy="165.753" r="3.49412" fill="#6BB42F" fill-opacity="0.25"/>
<circle cx="18.247" cy="165.753" r="3.49412" fill="#6BB42F" fill-opacity="0.25"/>
<circle cx="33" cy="165.753" r="3.49412" fill="#6BB42F" fill-opacity="0.25"/>
<circle cx="47.753" cy="165.753" r="3.49412" fill="#6BB42F" fill-opacity="0.25"/>
<circle cx="62.5059" cy="165.753" r="3.49412" fill="#6BB42F" fill-opacity="0.25"/>
<circle cx="3.49412" cy="180.506" r="3.49412" fill="#6BB42F" fill-opacity="0.25"/>
<circle cx="18.247" cy="180.506" r="3.49412" fill="#6BB42F" fill-opacity="0.25"/>
<circle cx="33" cy="180.506" r="3.49412" fill="#6BB42F" fill-opacity="0.25"/>
<circle cx="47.753" cy="180.506" r="3.49412" fill="#6BB42F" fill-opacity="0.25"/>
<circle cx="62.5059" cy="180.506" r="3.49412" fill="#6BB42F" fill-opacity="0.25"/>
<circle cx="125.494" cy="3.49412" r="3.49412" fill="#6BB42F" fill-opacity="0.25"/>
<circle cx="140.247" cy="3.49412" r="3.49412" fill="#6BB42F" fill-opacity="0.25"/>
<circle cx="155" cy="3.49412" r="3.49412" fill="#6BB42F" fill-opacity="0.25"/>
<circle cx="169.753" cy="3.49412" r="3.49412" fill="#6BB42F" fill-opacity="0.25"/>
<circle cx="184.506" cy="3.49412" r="3.49412" fill="#6BB42F" fill-opacity="0.25"/>
<circle cx="125.494" cy="18.247" r="3.49412" fill="#6BB42F" fill-opacity="0.25"/>
<circle cx="140.247" cy="18.247" r="3.49412" fill="#6BB42F" fill-opacity="0.25"/>
<circle cx="155" cy="18.247" r="3.49412" fill="#6BB42F" fill-opacity="0.25"/>
<circle cx="169.753" cy="18.247" r="3.49412" fill="#6BB42F" fill-opacity="0.25"/>
<circle cx="184.506" cy="18.247" r="3.49412" fill="#6BB42F" fill-opacity="0.25"/>
<circle cx="125.494" cy="33" r="3.49412" fill="#6BB42F" fill-opacity="0.25"/>
<circle cx="140.247" cy="33" r="3.49412" fill="#6BB42F" fill-opacity="0.25"/>
<circle cx="155" cy="33" r="3.49412" fill="#6BB42F" fill-opacity="0.25"/>
<circle cx="169.753" cy="33" r="3.49412" fill="#6BB42F" fill-opacity="0.25"/>
<circle cx="184.506" cy="33" r="3.49412" fill="#6BB42F" fill-opacity="0.25"/>
<circle cx="125.494" cy="47.7529" r="3.49412" fill="#6BB42F" fill-opacity="0.25"/>
<circle cx="140.247" cy="47.7529" r="3.49412" fill="#6BB42F" fill-opacity="0.25"/>
<circle cx="155" cy="47.7529" r="3.49412" fill="#6BB42F" fill-opacity="0.25"/>
<circle cx="169.753" cy="47.7529" r="3.49412" fill="#6BB42F" fill-opacity="0.25"/>
<circle cx="184.506" cy="47.7529" r="3.49412" fill="#6BB42F" fill-opacity="0.25"/>
<circle cx="125.494" cy="62.5058" r="3.49412" fill="#6BB42F" fill-opacity="0.25"/>
<circle cx="140.247" cy="62.5058" r="3.49412" fill="#6BB42F" fill-opacity="0.25"/>
<circle cx="155" cy="62.5058" r="3.49412" fill="#6BB42F" fill-opacity="0.25"/>
<circle cx="169.753" cy="62.5058" r="3.49412" fill="#6BB42F" fill-opacity="0.25"/>
<circle cx="184.506" cy="62.5058" r="3.49412" fill="#6BB42F" fill-opacity="0.25"/>
<circle cx="184.494" cy="62.4941" r="3.49412" fill="#6BB42F" fill-opacity="0.25"/>
<circle cx="199.247" cy="62.4941" r="3.49412" fill="#6BB42F" fill-opacity="0.25"/>
<circle cx="214" cy="62.4941" r="3.49412" fill="#6BB42F" fill-opacity="0.25"/>
<circle cx="228.753" cy="62.4941" r="3.49412" fill="#6BB42F" fill-opacity="0.25"/>
<circle cx="243.506" cy="62.4941" r="3.49412" fill="#6BB42F" fill-opacity="0.25"/>
<circle cx="184.494" cy="77.247" r="3.49412" fill="#6BB42F" fill-opacity="0.25"/>
<circle cx="199.247" cy="77.247" r="3.49412" fill="#6BB42F" fill-opacity="0.25"/>
<circle cx="214" cy="77.247" r="3.49412" fill="#6BB42F" fill-opacity="0.25"/>
<circle cx="228.753" cy="77.247" r="3.49412" fill="#6BB42F" fill-opacity="0.25"/>
<circle cx="243.506" cy="77.247" r="3.49412" fill="#6BB42F" fill-opacity="0.25"/>
<circle cx="184.494" cy="92" r="3.49412" fill="#6BB42F" fill-opacity="0.25"/>
<circle cx="199.247" cy="92" r="3.49412" fill="#6BB42F" fill-opacity="0.25"/>
<circle cx="214" cy="92" r="3.49412" fill="#6BB42F" fill-opacity="0.25"/>
<circle cx="228.753" cy="92" r="3.49412" fill="#6BB42F" fill-opacity="0.25"/>
<circle cx="243.506" cy="92" r="3.49412" fill="#6BB42F" fill-opacity="0.25"/>
<circle cx="184.494" cy="106.753" r="3.49412" fill="#6BB42F" fill-opacity="0.25"/>
<circle cx="199.247" cy="106.753" r="3.49412" fill="#6BB42F" fill-opacity="0.25"/>
<circle cx="214" cy="106.753" r="3.49412" fill="#6BB42F" fill-opacity="0.25"/>
<circle cx="228.753" cy="106.753" r="3.49412" fill="#6BB42F" fill-opacity="0.25"/>
<circle cx="243.506" cy="106.753" r="3.49412" fill="#6BB42F" fill-opacity="0.25"/>
<circle cx="184.494" cy="121.506" r="3.49412" fill="#6BB42F" fill-opacity="0.25"/>
<circle cx="199.247" cy="121.506" r="3.49412" fill="#6BB42F" fill-opacity="0.25"/>
<circle cx="214" cy="121.506" r="3.49412" fill="#6BB42F" fill-opacity="0.25"/>
<circle cx="228.753" cy="121.506" r="3.49412" fill="#6BB42F" fill-opacity="0.25"/>
<circle cx="243.506" cy="121.506" r="3.49412" fill="#6BB42F" fill-opacity="0.25"/>
<circle cx="125.494" cy="121.494" r="3.49412" fill="#6BB42F" fill-opacity="0.25"/>
<circle cx="140.247" cy="121.494" r="3.49412" fill="#6BB42F" fill-opacity="0.25"/>
<circle cx="155" cy="121.494" r="3.49412" fill="#6BB42F" fill-opacity="0.25"/>
<circle cx="169.753" cy="121.494" r="3.49412" fill="#6BB42F" fill-opacity="0.25"/>
<circle cx="184.506" cy="121.494" r="3.49412" fill="#6BB42F" fill-opacity="0.25"/>
<circle cx="125.494" cy="136.247" r="3.49412" fill="#6BB42F" fill-opacity="0.25"/>
<circle cx="140.247" cy="136.247" r="3.49412" fill="#6BB42F" fill-opacity="0.25"/>
<circle cx="155" cy="136.247" r="3.49412" fill="#6BB42F" fill-opacity="0.25"/>
<circle cx="169.753" cy="136.247" r="3.49412" fill="#6BB42F" fill-opacity="0.25"/>
<circle cx="184.506" cy="136.247" r="3.49412" fill="#6BB42F" fill-opacity="0.25"/>
<circle cx="125.494" cy="151" r="3.49412" fill="#6BB42F" fill-opacity="0.25"/>
<circle cx="140.247" cy="151" r="3.49412" fill="#6BB42F" fill-opacity="0.25"/>
<circle cx="155" cy="151" r="3.49412" fill="#6BB42F" fill-opacity="0.25"/>
<circle cx="169.753" cy="151" r="3.49412" fill="#6BB42F" fill-opacity="0.25"/>
<circle cx="184.506" cy="151" r="3.49412" fill="#6BB42F" fill-opacity="0.25"/>
<circle cx="125.494" cy="165.753" r="3.49412" fill="#6BB42F" fill-opacity="0.25"/>
<circle cx="140.247" cy="165.753" r="3.49412" fill="#6BB42F" fill-opacity="0.25"/>
<circle cx="155" cy="165.753" r="3.49412" fill="#6BB42F" fill-opacity="0.25"/>
<circle cx="169.753" cy="165.753" r="3.49412" fill="#6BB42F" fill-opacity="0.25"/>
<circle cx="184.506" cy="165.753" r="3.49412" fill="#6BB42F" fill-opacity="0.25"/>
<circle cx="125.494" cy="180.506" r="3.49412" fill="#6BB42F" fill-opacity="0.25"/>
<circle cx="140.247" cy="180.506" r="3.49412" fill="#6BB42F" fill-opacity="0.25"/>
<circle cx="155" cy="180.506" r="3.49412" fill="#6BB42F" fill-opacity="0.25"/>
<circle cx="169.753" cy="180.506" r="3.49412" fill="#6BB42F" fill-opacity="0.25"/>
<circle cx="184.506" cy="180.506" r="3.49412" fill="#6BB42F" fill-opacity="0.25"/>
<circle cx="250.494" cy="3.49412" r="3.49412" fill="#6BB42F" fill-opacity="0.25"/>
<circle cx="265.247" cy="3.49412" r="3.49412" fill="#6BB42F" fill-opacity="0.25"/>
<circle cx="280" cy="3.49412" r="3.49412" fill="#6BB42F" fill-opacity="0.25"/>
<circle cx="294.753" cy="3.49412" r="3.49412" fill="#6BB42F" fill-opacity="0.25"/>
<circle cx="309.506" cy="3.49412" r="3.49412" fill="#6BB42F" fill-opacity="0.25"/>
<circle cx="250.494" cy="18.247" r="3.49412" fill="#6BB42F" fill-opacity="0.25"/>
<circle cx="265.247" cy="18.247" r="3.49412" fill="#6BB42F" fill-opacity="0.25"/>
<circle cx="280" cy="18.247" r="3.49412" fill="#6BB42F" fill-opacity="0.25"/>
<circle cx="294.753" cy="18.247" r="3.49412" fill="#6BB42F" fill-opacity="0.25"/>
<circle cx="309.506" cy="18.247" r="3.49412" fill="#6BB42F" fill-opacity="0.25"/>
<circle cx="250.494" cy="33" r="3.49412" fill="#6BB42F" fill-opacity="0.25"/>
<circle cx="265.247" cy="33" r="3.49412" fill="#6BB42F" fill-opacity="0.25"/>
<circle cx="280" cy="33" r="3.49412" fill="#6BB42F" fill-opacity="0.25"/>
<circle cx="294.753" cy="33" r="3.49412" fill="#6BB42F" fill-opacity="0.25"/>
<circle cx="309.506" cy="33" r="3.49412" fill="#6BB42F" fill-opacity="0.25"/>
<circle cx="250.494" cy="47.7529" r="3.49412" fill="#6BB42F" fill-opacity="0.25"/>
<circle cx="265.247" cy="47.7529" r="3.49412" fill="#6BB42F" fill-opacity="0.25"/>
<circle cx="280" cy="47.7529" r="3.49412" fill="#6BB42F" fill-opacity="0.25"/>
<circle cx="294.753" cy="47.7529" r="3.49412" fill="#6BB42F" fill-opacity="0.25"/>
<circle cx="309.506" cy="47.7529" r="3.49412" fill="#6BB42F" fill-opacity="0.25"/>
<circle cx="250.494" cy="62.5058" r="3.49412" fill="#6BB42F" fill-opacity="0.25"/>
<circle cx="265.247" cy="62.5058" r="3.49412" fill="#6BB42F" fill-opacity="0.25"/>
<circle cx="280" cy="62.5058" r="3.49412" fill="#6BB42F" fill-opacity="0.25"/>
<circle cx="294.753" cy="62.5058" r="3.49412" fill="#6BB42F" fill-opacity="0.25"/>
<circle cx="309.506" cy="62.5058" r="3.49412" fill="#6BB42F" fill-opacity="0.25"/>
<circle cx="309.494" cy="62.4941" r="3.49412" fill="#6BB42F" fill-opacity="0.25"/>
<circle cx="324.247" cy="62.4941" r="3.49412" fill="#6BB42F" fill-opacity="0.25"/>
<circle cx="339" cy="62.4941" r="3.49412" fill="#6BB42F" fill-opacity="0.25"/>
<circle cx="353.753" cy="62.4941" r="3.49412" fill="#6BB42F" fill-opacity="0.25"/>
<circle cx="368.506" cy="62.4941" r="3.49412" fill="#6BB42F" fill-opacity="0.25"/>
<circle cx="309.494" cy="77.247" r="3.49412" fill="#6BB42F" fill-opacity="0.25"/>
<circle cx="324.247" cy="77.247" r="3.49412" fill="#6BB42F" fill-opacity="0.25"/>
<circle cx="339" cy="77.247" r="3.49412" fill="#6BB42F" fill-opacity="0.25"/>
<circle cx="353.753" cy="77.247" r="3.49412" fill="#6BB42F" fill-opacity="0.25"/>
<circle cx="368.506" cy="77.247" r="3.49412" fill="#6BB42F" fill-opacity="0.25"/>
<circle cx="309.494" cy="92" r="3.49412" fill="#6BB42F" fill-opacity="0.25"/>
<circle cx="324.247" cy="92" r="3.49412" fill="#6BB42F" fill-opacity="0.25"/>
<circle cx="339" cy="92" r="3.49412" fill="#6BB42F" fill-opacity="0.25"/>
<circle cx="353.753" cy="92" r="3.49412" fill="#6BB42F" fill-opacity="0.25"/>
<circle cx="368.506" cy="92" r="3.49412" fill="#6BB42F" fill-opacity="0.25"/>
<circle cx="309.494" cy="106.753" r="3.49412" fill="#6BB42F" fill-opacity="0.25"/>
<circle cx="324.247" cy="106.753" r="3.49412" fill="#6BB42F" fill-opacity="0.25"/>
<circle cx="339" cy="106.753" r="3.49412" fill="#6BB42F" fill-opacity="0.25"/>
<circle cx="353.753" cy="106.753" r="3.49412" fill="#6BB42F" fill-opacity="0.25"/>
<circle cx="368.506" cy="106.753" r="3.49412" fill="#6BB42F" fill-opacity="0.25"/>
<circle cx="309.494" cy="121.506" r="3.49412" fill="#6BB42F" fill-opacity="0.25"/>
<circle cx="324.247" cy="121.506" r="3.49412" fill="#6BB42F" fill-opacity="0.25"/>
<circle cx="339" cy="121.506" r="3.49412" fill="#6BB42F" fill-opacity="0.25"/>
<circle cx="353.753" cy="121.506" r="3.49412" fill="#6BB42F" fill-opacity="0.25"/>
<circle cx="368.506" cy="121.506" r="3.49412" fill="#6BB42F" fill-opacity="0.25"/>
<circle cx="250.494" cy="121.494" r="3.49412" fill="#6BB42F" fill-opacity="0.25"/>
<circle cx="265.247" cy="121.494" r="3.49412" fill="#6BB42F" fill-opacity="0.25"/>
<circle cx="280" cy="121.494" r="3.49412" fill="#6BB42F" fill-opacity="0.25"/>
<circle cx="294.753" cy="121.494" r="3.49412" fill="#6BB42F" fill-opacity="0.25"/>
<circle cx="309.506" cy="121.494" r="3.49412" fill="#6BB42F" fill-opacity="0.25"/>
<circle cx="250.494" cy="136.247" r="3.49412" fill="#6BB42F" fill-opacity="0.25"/>
<circle cx="265.247" cy="136.247" r="3.49412" fill="#6BB42F" fill-opacity="0.25"/>
<circle cx="280" cy="136.247" r="3.49412" fill="#6BB42F" fill-opacity="0.25"/>
<circle cx="294.753" cy="136.247" r="3.49412" fill="#6BB42F" fill-opacity="0.25"/>
<circle cx="309.506" cy="136.247" r="3.49412" fill="#6BB42F" fill-opacity="0.25"/>
<circle cx="250.494" cy="151" r="3.49412" fill="#6BB42F" fill-opacity="0.25"/>
<circle cx="265.247" cy="151" r="3.49412" fill="#6BB42F" fill-opacity="0.25"/>
<circle cx="280" cy="151" r="3.49412" fill="#6BB42F" fill-opacity="0.25"/>
<circle cx="294.753" cy="151" r="3.49412" fill="#6BB42F" fill-opacity="0.25"/>
<circle cx="309.506" cy="151" r="3.49412" fill="#6BB42F" fill-opacity="0.25"/>
<circle cx="250.494" cy="165.753" r="3.49412" fill="#6BB42F" fill-opacity="0.25"/>
<circle cx="265.247" cy="165.753" r="3.49412" fill="#6BB42F" fill-opacity="0.25"/>
<circle cx="280" cy="165.753" r="3.49412" fill="#6BB42F" fill-opacity="0.25"/>
<circle cx="294.753" cy="165.753" r="3.49412" fill="#6BB42F" fill-opacity="0.25"/>
<circle cx="309.506" cy="165.753" r="3.49412" fill="#6BB42F" fill-opacity="0.25"/>
<circle cx="250.494" cy="180.506" r="3.49412" fill="#6BB42F" fill-opacity="0.25"/>
<circle cx="265.247" cy="180.506" r="3.49412" fill="#6BB42F" fill-opacity="0.25"/>
<circle cx="280" cy="180.506" r="3.49412" fill="#6BB42F" fill-opacity="0.25"/>
<circle cx="294.753" cy="180.506" r="3.49412" fill="#6BB42F" fill-opacity="0.25"/>
<circle cx="309.506" cy="180.506" r="3.49412" fill="#6BB42F" fill-opacity="0.25"/>
</svg>
