<svg width="372" height="184" viewBox="0 0 372 184" fill="none" xmlns="http://www.w3.org/2000/svg">
<circle cx="3.49412" cy="3.49412" r="3.49412" transform="matrix(-1 0 0 1 372 0)" fill="white" fill-opacity="0.25"/>
<circle cx="3.49412" cy="3.49412" r="3.49412" transform="matrix(-1 0 0 1 357.247 0)" fill="white" fill-opacity="0.25"/>
<circle cx="3.49412" cy="3.49412" r="3.49412" transform="matrix(-1 0 0 1 342.494 0)" fill="white" fill-opacity="0.25"/>
<circle cx="3.49412" cy="3.49412" r="3.49412" transform="matrix(-1 0 0 1 327.741 0)" fill="white" fill-opacity="0.25"/>
<circle cx="3.49412" cy="3.49412" r="3.49412" transform="matrix(-1 0 0 1 312.988 0)" fill="white" fill-opacity="0.25"/>
<circle cx="3.49412" cy="3.49412" r="3.49412" transform="matrix(-1 0 0 1 372 14.7529)" fill="white" fill-opacity="0.25"/>
<circle cx="3.49412" cy="3.49412" r="3.49412" transform="matrix(-1 0 0 1 357.247 14.7529)" fill="white" fill-opacity="0.25"/>
<circle cx="3.49412" cy="3.49412" r="3.49412" transform="matrix(-1 0 0 1 342.494 14.7529)" fill="white" fill-opacity="0.25"/>
<circle cx="3.49412" cy="3.49412" r="3.49412" transform="matrix(-1 0 0 1 327.741 14.7529)" fill="white" fill-opacity="0.25"/>
<circle cx="3.49412" cy="3.49412" r="3.49412" transform="matrix(-1 0 0 1 312.988 14.7529)" fill="white" fill-opacity="0.25"/>
<circle cx="3.49412" cy="3.49412" r="3.49412" transform="matrix(-1 0 0 1 372 29.5059)" fill="white" fill-opacity="0.25"/>
<circle cx="3.49412" cy="3.49412" r="3.49412" transform="matrix(-1 0 0 1 357.247 29.5059)" fill="white" fill-opacity="0.25"/>
<circle cx="3.49412" cy="3.49412" r="3.49412" transform="matrix(-1 0 0 1 342.494 29.5059)" fill="white" fill-opacity="0.25"/>
<circle cx="3.49412" cy="3.49412" r="3.49412" transform="matrix(-1 0 0 1 327.741 29.5059)" fill="white" fill-opacity="0.25"/>
<circle cx="3.49412" cy="3.49412" r="3.49412" transform="matrix(-1 0 0 1 312.988 29.5059)" fill="white" fill-opacity="0.25"/>
<circle cx="3.49412" cy="3.49412" r="3.49412" transform="matrix(-1 0 0 1 372 44.2588)" fill="white" fill-opacity="0.25"/>
<circle cx="3.49412" cy="3.49412" r="3.49412" transform="matrix(-1 0 0 1 357.247 44.2588)" fill="white" fill-opacity="0.25"/>
<circle cx="3.49412" cy="3.49412" r="3.49412" transform="matrix(-1 0 0 1 342.494 44.2588)" fill="white" fill-opacity="0.25"/>
<circle cx="3.49412" cy="3.49412" r="3.49412" transform="matrix(-1 0 0 1 327.741 44.2588)" fill="white" fill-opacity="0.25"/>
<circle cx="3.49412" cy="3.49412" r="3.49412" transform="matrix(-1 0 0 1 312.988 44.2588)" fill="white" fill-opacity="0.25"/>
<circle cx="3.49412" cy="3.49412" r="3.49412" transform="matrix(-1 0 0 1 372 59.0117)" fill="white" fill-opacity="0.25"/>
<circle cx="3.49412" cy="3.49412" r="3.49412" transform="matrix(-1 0 0 1 357.247 59.0117)" fill="white" fill-opacity="0.25"/>
<circle cx="3.49412" cy="3.49412" r="3.49412" transform="matrix(-1 0 0 1 342.494 59.0117)" fill="white" fill-opacity="0.25"/>
<circle cx="3.49412" cy="3.49412" r="3.49412" transform="matrix(-1 0 0 1 327.741 59.0117)" fill="white" fill-opacity="0.25"/>
<circle cx="3.49412" cy="3.49412" r="3.49412" transform="matrix(-1 0 0 1 312.988 59.0117)" fill="white" fill-opacity="0.25"/>
<circle cx="3.49412" cy="3.49412" r="3.49412" transform="matrix(-1 0 0 1 313 59)" fill="white" fill-opacity="0.25"/>
<circle cx="3.49412" cy="3.49412" r="3.49412" transform="matrix(-1 0 0 1 298.247 59)" fill="white" fill-opacity="0.25"/>
<circle cx="3.49412" cy="3.49412" r="3.49412" transform="matrix(-1 0 0 1 283.494 59)" fill="white" fill-opacity="0.25"/>
<circle cx="3.49412" cy="3.49412" r="3.49412" transform="matrix(-1 0 0 1 268.741 59)" fill="white" fill-opacity="0.25"/>
<circle cx="3.49412" cy="3.49412" r="3.49412" transform="matrix(-1 0 0 1 253.988 59)" fill="white" fill-opacity="0.25"/>
<circle cx="3.49412" cy="3.49412" r="3.49412" transform="matrix(-1 0 0 1 313 73.7529)" fill="white" fill-opacity="0.25"/>
<circle cx="3.49412" cy="3.49412" r="3.49412" transform="matrix(-1 0 0 1 298.247 73.7529)" fill="white" fill-opacity="0.25"/>
<circle cx="3.49412" cy="3.49412" r="3.49412" transform="matrix(-1 0 0 1 283.494 73.7529)" fill="white" fill-opacity="0.25"/>
<circle cx="3.49412" cy="3.49412" r="3.49412" transform="matrix(-1 0 0 1 268.741 73.7529)" fill="white" fill-opacity="0.25"/>
<circle cx="3.49412" cy="3.49412" r="3.49412" transform="matrix(-1 0 0 1 253.988 73.7529)" fill="white" fill-opacity="0.25"/>
<circle cx="3.49412" cy="3.49412" r="3.49412" transform="matrix(-1 0 0 1 313 88.5059)" fill="white" fill-opacity="0.25"/>
<circle cx="3.49412" cy="3.49412" r="3.49412" transform="matrix(-1 0 0 1 298.247 88.5059)" fill="white" fill-opacity="0.25"/>
<circle cx="3.49412" cy="3.49412" r="3.49412" transform="matrix(-1 0 0 1 283.494 88.5059)" fill="white" fill-opacity="0.25"/>
<circle cx="3.49412" cy="3.49412" r="3.49412" transform="matrix(-1 0 0 1 268.741 88.5059)" fill="white" fill-opacity="0.25"/>
<circle cx="3.49412" cy="3.49412" r="3.49412" transform="matrix(-1 0 0 1 253.988 88.5059)" fill="white" fill-opacity="0.25"/>
<circle cx="3.49412" cy="3.49412" r="3.49412" transform="matrix(-1 0 0 1 313 103.259)" fill="white" fill-opacity="0.25"/>
<circle cx="3.49412" cy="3.49412" r="3.49412" transform="matrix(-1 0 0 1 298.247 103.259)" fill="white" fill-opacity="0.25"/>
<circle cx="3.49412" cy="3.49412" r="3.49412" transform="matrix(-1 0 0 1 283.494 103.259)" fill="white" fill-opacity="0.25"/>
<circle cx="3.49412" cy="3.49412" r="3.49412" transform="matrix(-1 0 0 1 268.741 103.259)" fill="white" fill-opacity="0.25"/>
<circle cx="3.49412" cy="3.49412" r="3.49412" transform="matrix(-1 0 0 1 253.988 103.259)" fill="white" fill-opacity="0.25"/>
<circle cx="3.49412" cy="3.49412" r="3.49412" transform="matrix(-1 0 0 1 313 118.012)" fill="white" fill-opacity="0.25"/>
<circle cx="3.49412" cy="3.49412" r="3.49412" transform="matrix(-1 0 0 1 298.247 118.012)" fill="white" fill-opacity="0.25"/>
<circle cx="3.49412" cy="3.49412" r="3.49412" transform="matrix(-1 0 0 1 283.494 118.012)" fill="white" fill-opacity="0.25"/>
<circle cx="3.49412" cy="3.49412" r="3.49412" transform="matrix(-1 0 0 1 268.741 118.012)" fill="white" fill-opacity="0.25"/>
<circle cx="3.49412" cy="3.49412" r="3.49412" transform="matrix(-1 0 0 1 253.988 118.012)" fill="white" fill-opacity="0.25"/>
<circle cx="3.49412" cy="3.49412" r="3.49412" transform="matrix(-1 0 0 1 372 118)" fill="white" fill-opacity="0.25"/>
<circle cx="3.49412" cy="3.49412" r="3.49412" transform="matrix(-1 0 0 1 357.247 118)" fill="white" fill-opacity="0.25"/>
<circle cx="3.49412" cy="3.49412" r="3.49412" transform="matrix(-1 0 0 1 342.494 118)" fill="white" fill-opacity="0.25"/>
<circle cx="3.49412" cy="3.49412" r="3.49412" transform="matrix(-1 0 0 1 327.741 118)" fill="white" fill-opacity="0.25"/>
<circle cx="3.49412" cy="3.49412" r="3.49412" transform="matrix(-1 0 0 1 312.988 118)" fill="white" fill-opacity="0.25"/>
<circle cx="3.49412" cy="3.49412" r="3.49412" transform="matrix(-1 0 0 1 372 132.753)" fill="white" fill-opacity="0.25"/>
<circle cx="3.49412" cy="3.49412" r="3.49412" transform="matrix(-1 0 0 1 357.247 132.753)" fill="white" fill-opacity="0.25"/>
<circle cx="3.49412" cy="3.49412" r="3.49412" transform="matrix(-1 0 0 1 342.494 132.753)" fill="white" fill-opacity="0.25"/>
<circle cx="3.49412" cy="3.49412" r="3.49412" transform="matrix(-1 0 0 1 327.741 132.753)" fill="white" fill-opacity="0.25"/>
<circle cx="3.49412" cy="3.49412" r="3.49412" transform="matrix(-1 0 0 1 312.988 132.753)" fill="white" fill-opacity="0.25"/>
<circle cx="3.49412" cy="3.49412" r="3.49412" transform="matrix(-1 0 0 1 372 147.506)" fill="white" fill-opacity="0.25"/>
<circle cx="3.49412" cy="3.49412" r="3.49412" transform="matrix(-1 0 0 1 357.247 147.506)" fill="white" fill-opacity="0.25"/>
<circle cx="3.49412" cy="3.49412" r="3.49412" transform="matrix(-1 0 0 1 342.494 147.506)" fill="white" fill-opacity="0.25"/>
<circle cx="3.49412" cy="3.49412" r="3.49412" transform="matrix(-1 0 0 1 327.741 147.506)" fill="white" fill-opacity="0.25"/>
<circle cx="3.49412" cy="3.49412" r="3.49412" transform="matrix(-1 0 0 1 312.988 147.506)" fill="white" fill-opacity="0.25"/>
<circle cx="3.49412" cy="3.49412" r="3.49412" transform="matrix(-1 0 0 1 372 162.259)" fill="white" fill-opacity="0.25"/>
<circle cx="3.49412" cy="3.49412" r="3.49412" transform="matrix(-1 0 0 1 357.247 162.259)" fill="white" fill-opacity="0.25"/>
<circle cx="3.49412" cy="3.49412" r="3.49412" transform="matrix(-1 0 0 1 342.494 162.259)" fill="white" fill-opacity="0.25"/>
<circle cx="3.49412" cy="3.49412" r="3.49412" transform="matrix(-1 0 0 1 327.741 162.259)" fill="white" fill-opacity="0.25"/>
<circle cx="3.49412" cy="3.49412" r="3.49412" transform="matrix(-1 0 0 1 312.988 162.259)" fill="white" fill-opacity="0.25"/>
<circle cx="3.49412" cy="3.49412" r="3.49412" transform="matrix(-1 0 0 1 372 177.012)" fill="white" fill-opacity="0.25"/>
<circle cx="3.49412" cy="3.49412" r="3.49412" transform="matrix(-1 0 0 1 357.247 177.012)" fill="white" fill-opacity="0.25"/>
<circle cx="3.49412" cy="3.49412" r="3.49412" transform="matrix(-1 0 0 1 342.494 177.012)" fill="white" fill-opacity="0.25"/>
<circle cx="3.49412" cy="3.49412" r="3.49412" transform="matrix(-1 0 0 1 327.741 177.012)" fill="white" fill-opacity="0.25"/>
<circle cx="3.49412" cy="3.49412" r="3.49412" transform="matrix(-1 0 0 1 312.988 177.012)" fill="white" fill-opacity="0.25"/>
<circle cx="3.49412" cy="3.49412" r="3.49412" transform="matrix(-1 0 0 1 247 0)" fill="white" fill-opacity="0.25"/>
<circle cx="3.49412" cy="3.49412" r="3.49412" transform="matrix(-1 0 0 1 232.247 0)" fill="white" fill-opacity="0.25"/>
<circle cx="3.49412" cy="3.49412" r="3.49412" transform="matrix(-1 0 0 1 217.494 0)" fill="white" fill-opacity="0.25"/>
<circle cx="3.49412" cy="3.49412" r="3.49412" transform="matrix(-1 0 0 1 202.741 0)" fill="white" fill-opacity="0.25"/>
<circle cx="3.49412" cy="3.49412" r="3.49412" transform="matrix(-1 0 0 1 187.988 0)" fill="white" fill-opacity="0.25"/>
<circle cx="3.49412" cy="3.49412" r="3.49412" transform="matrix(-1 0 0 1 247 14.7529)" fill="white" fill-opacity="0.25"/>
<circle cx="3.49412" cy="3.49412" r="3.49412" transform="matrix(-1 0 0 1 232.247 14.7529)" fill="white" fill-opacity="0.25"/>
<circle cx="3.49412" cy="3.49412" r="3.49412" transform="matrix(-1 0 0 1 217.494 14.7529)" fill="white" fill-opacity="0.25"/>
<circle cx="3.49412" cy="3.49412" r="3.49412" transform="matrix(-1 0 0 1 202.741 14.7529)" fill="white" fill-opacity="0.25"/>
<circle cx="3.49412" cy="3.49412" r="3.49412" transform="matrix(-1 0 0 1 187.988 14.7529)" fill="white" fill-opacity="0.25"/>
<circle cx="3.49412" cy="3.49412" r="3.49412" transform="matrix(-1 0 0 1 247 29.5059)" fill="white" fill-opacity="0.25"/>
<circle cx="3.49412" cy="3.49412" r="3.49412" transform="matrix(-1 0 0 1 232.247 29.5059)" fill="white" fill-opacity="0.25"/>
<circle cx="3.49412" cy="3.49412" r="3.49412" transform="matrix(-1 0 0 1 217.494 29.5059)" fill="white" fill-opacity="0.25"/>
<circle cx="3.49412" cy="3.49412" r="3.49412" transform="matrix(-1 0 0 1 202.741 29.5059)" fill="white" fill-opacity="0.25"/>
<circle cx="3.49412" cy="3.49412" r="3.49412" transform="matrix(-1 0 0 1 187.988 29.5059)" fill="white" fill-opacity="0.25"/>
<circle cx="3.49412" cy="3.49412" r="3.49412" transform="matrix(-1 0 0 1 247 44.2588)" fill="white" fill-opacity="0.25"/>
<circle cx="3.49412" cy="3.49412" r="3.49412" transform="matrix(-1 0 0 1 232.247 44.2588)" fill="white" fill-opacity="0.25"/>
<circle cx="3.49412" cy="3.49412" r="3.49412" transform="matrix(-1 0 0 1 217.494 44.2588)" fill="white" fill-opacity="0.25"/>
<circle cx="3.49412" cy="3.49412" r="3.49412" transform="matrix(-1 0 0 1 202.741 44.2588)" fill="white" fill-opacity="0.25"/>
<circle cx="3.49412" cy="3.49412" r="3.49412" transform="matrix(-1 0 0 1 187.988 44.2588)" fill="white" fill-opacity="0.25"/>
<circle cx="3.49412" cy="3.49412" r="3.49412" transform="matrix(-1 0 0 1 247 59.0117)" fill="white" fill-opacity="0.25"/>
<circle cx="3.49412" cy="3.49412" r="3.49412" transform="matrix(-1 0 0 1 232.247 59.0117)" fill="white" fill-opacity="0.25"/>
<circle cx="3.49412" cy="3.49412" r="3.49412" transform="matrix(-1 0 0 1 217.494 59.0117)" fill="white" fill-opacity="0.25"/>
<circle cx="3.49412" cy="3.49412" r="3.49412" transform="matrix(-1 0 0 1 202.741 59.0117)" fill="white" fill-opacity="0.25"/>
<circle cx="3.49412" cy="3.49412" r="3.49412" transform="matrix(-1 0 0 1 187.988 59.0117)" fill="white" fill-opacity="0.25"/>
<circle cx="3.49412" cy="3.49412" r="3.49412" transform="matrix(-1 0 0 1 188 59)" fill="white" fill-opacity="0.25"/>
<circle cx="3.49412" cy="3.49412" r="3.49412" transform="matrix(-1 0 0 1 173.247 59)" fill="white" fill-opacity="0.25"/>
<circle cx="3.49412" cy="3.49412" r="3.49412" transform="matrix(-1 0 0 1 158.494 59)" fill="white" fill-opacity="0.25"/>
<circle cx="3.49412" cy="3.49412" r="3.49412" transform="matrix(-1 0 0 1 143.741 59)" fill="white" fill-opacity="0.25"/>
<circle cx="3.49412" cy="3.49412" r="3.49412" transform="matrix(-1 0 0 1 128.988 59)" fill="white" fill-opacity="0.25"/>
<circle cx="3.49412" cy="3.49412" r="3.49412" transform="matrix(-1 0 0 1 188 73.7529)" fill="white" fill-opacity="0.25"/>
<circle cx="3.49412" cy="3.49412" r="3.49412" transform="matrix(-1 0 0 1 173.247 73.7529)" fill="white" fill-opacity="0.25"/>
<circle cx="3.49412" cy="3.49412" r="3.49412" transform="matrix(-1 0 0 1 158.494 73.7529)" fill="white" fill-opacity="0.25"/>
<circle cx="3.49412" cy="3.49412" r="3.49412" transform="matrix(-1 0 0 1 143.741 73.7529)" fill="white" fill-opacity="0.25"/>
<circle cx="3.49412" cy="3.49412" r="3.49412" transform="matrix(-1 0 0 1 128.988 73.7529)" fill="white" fill-opacity="0.25"/>
<circle cx="3.49412" cy="3.49412" r="3.49412" transform="matrix(-1 0 0 1 188 88.5059)" fill="white" fill-opacity="0.25"/>
<circle cx="3.49412" cy="3.49412" r="3.49412" transform="matrix(-1 0 0 1 173.247 88.5059)" fill="white" fill-opacity="0.25"/>
<circle cx="3.49412" cy="3.49412" r="3.49412" transform="matrix(-1 0 0 1 158.494 88.5059)" fill="white" fill-opacity="0.25"/>
<circle cx="3.49412" cy="3.49412" r="3.49412" transform="matrix(-1 0 0 1 143.741 88.5059)" fill="white" fill-opacity="0.25"/>
<circle cx="3.49412" cy="3.49412" r="3.49412" transform="matrix(-1 0 0 1 128.988 88.5059)" fill="white" fill-opacity="0.25"/>
<circle cx="3.49412" cy="3.49412" r="3.49412" transform="matrix(-1 0 0 1 188 103.259)" fill="white" fill-opacity="0.25"/>
<circle cx="3.49412" cy="3.49412" r="3.49412" transform="matrix(-1 0 0 1 173.247 103.259)" fill="white" fill-opacity="0.25"/>
<circle cx="3.49412" cy="3.49412" r="3.49412" transform="matrix(-1 0 0 1 158.494 103.259)" fill="white" fill-opacity="0.25"/>
<circle cx="3.49412" cy="3.49412" r="3.49412" transform="matrix(-1 0 0 1 143.741 103.259)" fill="white" fill-opacity="0.25"/>
<circle cx="3.49412" cy="3.49412" r="3.49412" transform="matrix(-1 0 0 1 128.988 103.259)" fill="white" fill-opacity="0.25"/>
<circle cx="3.49412" cy="3.49412" r="3.49412" transform="matrix(-1 0 0 1 188 118.012)" fill="white" fill-opacity="0.25"/>
<circle cx="3.49412" cy="3.49412" r="3.49412" transform="matrix(-1 0 0 1 173.247 118.012)" fill="white" fill-opacity="0.25"/>
<circle cx="3.49412" cy="3.49412" r="3.49412" transform="matrix(-1 0 0 1 158.494 118.012)" fill="white" fill-opacity="0.25"/>
<circle cx="3.49412" cy="3.49412" r="3.49412" transform="matrix(-1 0 0 1 143.741 118.012)" fill="white" fill-opacity="0.25"/>
<circle cx="3.49412" cy="3.49412" r="3.49412" transform="matrix(-1 0 0 1 128.988 118.012)" fill="white" fill-opacity="0.25"/>
<circle cx="3.49412" cy="3.49412" r="3.49412" transform="matrix(-1 0 0 1 247 118)" fill="white" fill-opacity="0.25"/>
<circle cx="3.49412" cy="3.49412" r="3.49412" transform="matrix(-1 0 0 1 232.247 118)" fill="white" fill-opacity="0.25"/>
<circle cx="3.49412" cy="3.49412" r="3.49412" transform="matrix(-1 0 0 1 217.494 118)" fill="white" fill-opacity="0.25"/>
<circle cx="3.49412" cy="3.49412" r="3.49412" transform="matrix(-1 0 0 1 202.741 118)" fill="white" fill-opacity="0.25"/>
<circle cx="3.49412" cy="3.49412" r="3.49412" transform="matrix(-1 0 0 1 187.988 118)" fill="white" fill-opacity="0.25"/>
<circle cx="3.49412" cy="3.49412" r="3.49412" transform="matrix(-1 0 0 1 247 132.753)" fill="white" fill-opacity="0.25"/>
<circle cx="3.49412" cy="3.49412" r="3.49412" transform="matrix(-1 0 0 1 232.247 132.753)" fill="white" fill-opacity="0.25"/>
<circle cx="3.49412" cy="3.49412" r="3.49412" transform="matrix(-1 0 0 1 217.494 132.753)" fill="white" fill-opacity="0.25"/>
<circle cx="3.49412" cy="3.49412" r="3.49412" transform="matrix(-1 0 0 1 202.741 132.753)" fill="white" fill-opacity="0.25"/>
<circle cx="3.49412" cy="3.49412" r="3.49412" transform="matrix(-1 0 0 1 187.988 132.753)" fill="white" fill-opacity="0.25"/>
<circle cx="3.49412" cy="3.49412" r="3.49412" transform="matrix(-1 0 0 1 247 147.506)" fill="white" fill-opacity="0.25"/>
<circle cx="3.49412" cy="3.49412" r="3.49412" transform="matrix(-1 0 0 1 232.247 147.506)" fill="white" fill-opacity="0.25"/>
<circle cx="3.49412" cy="3.49412" r="3.49412" transform="matrix(-1 0 0 1 217.494 147.506)" fill="white" fill-opacity="0.25"/>
<circle cx="3.49412" cy="3.49412" r="3.49412" transform="matrix(-1 0 0 1 202.741 147.506)" fill="white" fill-opacity="0.25"/>
<circle cx="3.49412" cy="3.49412" r="3.49412" transform="matrix(-1 0 0 1 187.988 147.506)" fill="white" fill-opacity="0.25"/>
<circle cx="3.49412" cy="3.49412" r="3.49412" transform="matrix(-1 0 0 1 247 162.259)" fill="white" fill-opacity="0.25"/>
<circle cx="3.49412" cy="3.49412" r="3.49412" transform="matrix(-1 0 0 1 232.247 162.259)" fill="white" fill-opacity="0.25"/>
<circle cx="3.49412" cy="3.49412" r="3.49412" transform="matrix(-1 0 0 1 217.494 162.259)" fill="white" fill-opacity="0.25"/>
<circle cx="3.49412" cy="3.49412" r="3.49412" transform="matrix(-1 0 0 1 202.741 162.259)" fill="white" fill-opacity="0.25"/>
<circle cx="3.49412" cy="3.49412" r="3.49412" transform="matrix(-1 0 0 1 187.988 162.259)" fill="white" fill-opacity="0.25"/>
<circle cx="3.49412" cy="3.49412" r="3.49412" transform="matrix(-1 0 0 1 247 177.012)" fill="white" fill-opacity="0.25"/>
<circle cx="3.49412" cy="3.49412" r="3.49412" transform="matrix(-1 0 0 1 232.247 177.012)" fill="white" fill-opacity="0.25"/>
<circle cx="3.49412" cy="3.49412" r="3.49412" transform="matrix(-1 0 0 1 217.494 177.012)" fill="white" fill-opacity="0.25"/>
<circle cx="3.49412" cy="3.49412" r="3.49412" transform="matrix(-1 0 0 1 202.741 177.012)" fill="white" fill-opacity="0.25"/>
<circle cx="3.49412" cy="3.49412" r="3.49412" transform="matrix(-1 0 0 1 187.988 177.012)" fill="white" fill-opacity="0.25"/>
<circle cx="3.49412" cy="3.49412" r="3.49412" transform="matrix(-1 0 0 1 125 0)" fill="white" fill-opacity="0.25"/>
<circle cx="3.49412" cy="3.49412" r="3.49412" transform="matrix(-1 0 0 1 110.247 0)" fill="white" fill-opacity="0.25"/>
<circle cx="3.49412" cy="3.49412" r="3.49412" transform="matrix(-1 0 0 1 95.4941 0)" fill="white" fill-opacity="0.25"/>
<circle cx="3.49412" cy="3.49412" r="3.49412" transform="matrix(-1 0 0 1 80.7412 0)" fill="white" fill-opacity="0.25"/>
<circle cx="3.49412" cy="3.49412" r="3.49412" transform="matrix(-1 0 0 1 65.9883 0)" fill="white" fill-opacity="0.25"/>
<circle cx="3.49412" cy="3.49412" r="3.49412" transform="matrix(-1 0 0 1 125 14.7529)" fill="white" fill-opacity="0.25"/>
<circle cx="3.49412" cy="3.49412" r="3.49412" transform="matrix(-1 0 0 1 110.247 14.7529)" fill="white" fill-opacity="0.25"/>
<circle cx="3.49412" cy="3.49412" r="3.49412" transform="matrix(-1 0 0 1 95.4941 14.7529)" fill="white" fill-opacity="0.25"/>
<circle cx="3.49412" cy="3.49412" r="3.49412" transform="matrix(-1 0 0 1 80.7412 14.7529)" fill="white" fill-opacity="0.25"/>
<circle cx="3.49412" cy="3.49412" r="3.49412" transform="matrix(-1 0 0 1 65.9883 14.7529)" fill="white" fill-opacity="0.25"/>
<circle cx="3.49412" cy="3.49412" r="3.49412" transform="matrix(-1 0 0 1 125 29.5059)" fill="white" fill-opacity="0.25"/>
<circle cx="3.49412" cy="3.49412" r="3.49412" transform="matrix(-1 0 0 1 110.247 29.5059)" fill="white" fill-opacity="0.25"/>
<circle cx="3.49412" cy="3.49412" r="3.49412" transform="matrix(-1 0 0 1 95.4941 29.5059)" fill="white" fill-opacity="0.25"/>
<circle cx="3.49412" cy="3.49412" r="3.49412" transform="matrix(-1 0 0 1 80.7412 29.5059)" fill="white" fill-opacity="0.25"/>
<circle cx="3.49412" cy="3.49412" r="3.49412" transform="matrix(-1 0 0 1 65.9883 29.5059)" fill="white" fill-opacity="0.25"/>
<circle cx="3.49412" cy="3.49412" r="3.49412" transform="matrix(-1 0 0 1 125 44.2588)" fill="white" fill-opacity="0.25"/>
<circle cx="3.49412" cy="3.49412" r="3.49412" transform="matrix(-1 0 0 1 110.247 44.2588)" fill="white" fill-opacity="0.25"/>
<circle cx="3.49412" cy="3.49412" r="3.49412" transform="matrix(-1 0 0 1 95.4941 44.2588)" fill="white" fill-opacity="0.25"/>
<circle cx="3.49412" cy="3.49412" r="3.49412" transform="matrix(-1 0 0 1 80.7412 44.2588)" fill="white" fill-opacity="0.25"/>
<circle cx="3.49412" cy="3.49412" r="3.49412" transform="matrix(-1 0 0 1 65.9883 44.2588)" fill="white" fill-opacity="0.25"/>
<circle cx="3.49412" cy="3.49412" r="3.49412" transform="matrix(-1 0 0 1 125 59.0117)" fill="white" fill-opacity="0.25"/>
<circle cx="3.49412" cy="3.49412" r="3.49412" transform="matrix(-1 0 0 1 110.247 59.0117)" fill="white" fill-opacity="0.25"/>
<circle cx="3.49412" cy="3.49412" r="3.49412" transform="matrix(-1 0 0 1 95.4941 59.0117)" fill="white" fill-opacity="0.25"/>
<circle cx="3.49412" cy="3.49412" r="3.49412" transform="matrix(-1 0 0 1 80.7412 59.0117)" fill="white" fill-opacity="0.25"/>
<circle cx="3.49412" cy="3.49412" r="3.49412" transform="matrix(-1 0 0 1 65.9883 59.0117)" fill="white" fill-opacity="0.25"/>
<circle cx="3.49412" cy="3.49412" r="3.49412" transform="matrix(-1 0 0 1 66 59)" fill="white" fill-opacity="0.25"/>
<circle cx="3.49412" cy="3.49412" r="3.49412" transform="matrix(-1 0 0 1 51.2471 59)" fill="white" fill-opacity="0.25"/>
<circle cx="3.49412" cy="3.49412" r="3.49412" transform="matrix(-1 0 0 1 36.4941 59)" fill="white" fill-opacity="0.25"/>
<circle cx="3.49412" cy="3.49412" r="3.49412" transform="matrix(-1 0 0 1 21.7412 59)" fill="white" fill-opacity="0.25"/>
<circle cx="3.49412" cy="3.49412" r="3.49412" transform="matrix(-1 0 0 1 6.98828 59)" fill="white" fill-opacity="0.25"/>
<circle cx="3.49412" cy="3.49412" r="3.49412" transform="matrix(-1 0 0 1 66 73.7529)" fill="white" fill-opacity="0.25"/>
<circle cx="3.49412" cy="3.49412" r="3.49412" transform="matrix(-1 0 0 1 51.2471 73.7529)" fill="white" fill-opacity="0.25"/>
<circle cx="3.49412" cy="3.49412" r="3.49412" transform="matrix(-1 0 0 1 36.4941 73.7529)" fill="white" fill-opacity="0.25"/>
<circle cx="3.49412" cy="3.49412" r="3.49412" transform="matrix(-1 0 0 1 21.7412 73.7529)" fill="white" fill-opacity="0.25"/>
<circle cx="3.49412" cy="3.49412" r="3.49412" transform="matrix(-1 0 0 1 6.98828 73.7529)" fill="white" fill-opacity="0.25"/>
<circle cx="3.49412" cy="3.49412" r="3.49412" transform="matrix(-1 0 0 1 66 88.5059)" fill="white" fill-opacity="0.25"/>
<circle cx="3.49412" cy="3.49412" r="3.49412" transform="matrix(-1 0 0 1 51.2471 88.5059)" fill="white" fill-opacity="0.25"/>
<circle cx="3.49412" cy="3.49412" r="3.49412" transform="matrix(-1 0 0 1 36.4941 88.5059)" fill="white" fill-opacity="0.25"/>
<circle cx="3.49412" cy="3.49412" r="3.49412" transform="matrix(-1 0 0 1 21.7412 88.5059)" fill="white" fill-opacity="0.25"/>
<circle cx="3.49412" cy="3.49412" r="3.49412" transform="matrix(-1 0 0 1 6.98828 88.5059)" fill="white" fill-opacity="0.25"/>
<circle cx="3.49412" cy="3.49412" r="3.49412" transform="matrix(-1 0 0 1 66 103.259)" fill="white" fill-opacity="0.25"/>
<circle cx="3.49412" cy="3.49412" r="3.49412" transform="matrix(-1 0 0 1 51.2471 103.259)" fill="white" fill-opacity="0.25"/>
<circle cx="3.49412" cy="3.49412" r="3.49412" transform="matrix(-1 0 0 1 36.4941 103.259)" fill="white" fill-opacity="0.25"/>
<circle cx="3.49412" cy="3.49412" r="3.49412" transform="matrix(-1 0 0 1 21.7412 103.259)" fill="white" fill-opacity="0.25"/>
<circle cx="3.49412" cy="3.49412" r="3.49412" transform="matrix(-1 0 0 1 6.98828 103.259)" fill="white" fill-opacity="0.25"/>
<circle cx="3.49412" cy="3.49412" r="3.49412" transform="matrix(-1 0 0 1 66 118.012)" fill="white" fill-opacity="0.25"/>
<circle cx="3.49412" cy="3.49412" r="3.49412" transform="matrix(-1 0 0 1 51.2471 118.012)" fill="white" fill-opacity="0.25"/>
<circle cx="3.49412" cy="3.49412" r="3.49412" transform="matrix(-1 0 0 1 36.4941 118.012)" fill="white" fill-opacity="0.25"/>
<circle cx="3.49412" cy="3.49412" r="3.49412" transform="matrix(-1 0 0 1 21.7412 118.012)" fill="white" fill-opacity="0.25"/>
<circle cx="3.49412" cy="3.49412" r="3.49412" transform="matrix(-1 0 0 1 6.98828 118.012)" fill="white" fill-opacity="0.25"/>
<circle cx="3.49412" cy="3.49412" r="3.49412" transform="matrix(-1 0 0 1 125 118)" fill="white" fill-opacity="0.25"/>
<circle cx="3.49412" cy="3.49412" r="3.49412" transform="matrix(-1 0 0 1 110.247 118)" fill="white" fill-opacity="0.25"/>
<circle cx="3.49412" cy="3.49412" r="3.49412" transform="matrix(-1 0 0 1 95.4941 118)" fill="white" fill-opacity="0.25"/>
<circle cx="3.49412" cy="3.49412" r="3.49412" transform="matrix(-1 0 0 1 80.7412 118)" fill="white" fill-opacity="0.25"/>
<circle cx="3.49412" cy="3.49412" r="3.49412" transform="matrix(-1 0 0 1 65.9883 118)" fill="white" fill-opacity="0.25"/>
<circle cx="3.49412" cy="3.49412" r="3.49412" transform="matrix(-1 0 0 1 125 132.753)" fill="white" fill-opacity="0.25"/>
<circle cx="3.49412" cy="3.49412" r="3.49412" transform="matrix(-1 0 0 1 110.247 132.753)" fill="white" fill-opacity="0.25"/>
<circle cx="3.49412" cy="3.49412" r="3.49412" transform="matrix(-1 0 0 1 95.4941 132.753)" fill="white" fill-opacity="0.25"/>
<circle cx="3.49412" cy="3.49412" r="3.49412" transform="matrix(-1 0 0 1 80.7412 132.753)" fill="white" fill-opacity="0.25"/>
<circle cx="3.49412" cy="3.49412" r="3.49412" transform="matrix(-1 0 0 1 65.9883 132.753)" fill="white" fill-opacity="0.25"/>
<circle cx="3.49412" cy="3.49412" r="3.49412" transform="matrix(-1 0 0 1 125 147.506)" fill="white" fill-opacity="0.25"/>
<circle cx="3.49412" cy="3.49412" r="3.49412" transform="matrix(-1 0 0 1 110.247 147.506)" fill="white" fill-opacity="0.25"/>
<circle cx="3.49412" cy="3.49412" r="3.49412" transform="matrix(-1 0 0 1 95.4941 147.506)" fill="white" fill-opacity="0.25"/>
<circle cx="3.49412" cy="3.49412" r="3.49412" transform="matrix(-1 0 0 1 80.7412 147.506)" fill="white" fill-opacity="0.25"/>
<circle cx="3.49412" cy="3.49412" r="3.49412" transform="matrix(-1 0 0 1 65.9883 147.506)" fill="white" fill-opacity="0.25"/>
<circle cx="3.49412" cy="3.49412" r="3.49412" transform="matrix(-1 0 0 1 125 162.259)" fill="white" fill-opacity="0.25"/>
<circle cx="3.49412" cy="3.49412" r="3.49412" transform="matrix(-1 0 0 1 110.247 162.259)" fill="white" fill-opacity="0.25"/>
<circle cx="3.49412" cy="3.49412" r="3.49412" transform="matrix(-1 0 0 1 95.4941 162.259)" fill="white" fill-opacity="0.25"/>
<circle cx="3.49412" cy="3.49412" r="3.49412" transform="matrix(-1 0 0 1 80.7412 162.259)" fill="white" fill-opacity="0.25"/>
<circle cx="3.49412" cy="3.49412" r="3.49412" transform="matrix(-1 0 0 1 65.9883 162.259)" fill="white" fill-opacity="0.25"/>
<circle cx="3.49412" cy="3.49412" r="3.49412" transform="matrix(-1 0 0 1 125 177.012)" fill="white" fill-opacity="0.25"/>
<circle cx="3.49412" cy="3.49412" r="3.49412" transform="matrix(-1 0 0 1 110.247 177.012)" fill="white" fill-opacity="0.25"/>
<circle cx="3.49412" cy="3.49412" r="3.49412" transform="matrix(-1 0 0 1 95.4941 177.012)" fill="white" fill-opacity="0.25"/>
<circle cx="3.49412" cy="3.49412" r="3.49412" transform="matrix(-1 0 0 1 80.7412 177.012)" fill="white" fill-opacity="0.25"/>
<circle cx="3.49412" cy="3.49412" r="3.49412" transform="matrix(-1 0 0 1 65.9883 177.012)" fill="white" fill-opacity="0.25"/>
</svg>
