<svg width="125" height="184" viewBox="0 0 125 184" fill="none" xmlns="http://www.w3.org/2000/svg">
<circle cx="3.49412" cy="3.49412" r="3.49412" fill="#6BB42F" fill-opacity="0.25"/>
<circle cx="18.247" cy="3.49412" r="3.49412" fill="#6BB42F" fill-opacity="0.25"/>
<circle cx="33" cy="3.49412" r="3.49412" fill="#6BB42F" fill-opacity="0.25"/>
<circle cx="47.753" cy="3.49412" r="3.49412" fill="#6BB42F" fill-opacity="0.25"/>
<circle cx="62.5059" cy="3.49412" r="3.49412" fill="#6BB42F" fill-opacity="0.25"/>
<circle cx="3.49412" cy="18.247" r="3.49412" fill="#6BB42F" fill-opacity="0.25"/>
<circle cx="18.247" cy="18.247" r="3.49412" fill="#6BB42F" fill-opacity="0.25"/>
<circle cx="33" cy="18.247" r="3.49412" fill="#6BB42F" fill-opacity="0.25"/>
<circle cx="47.753" cy="18.247" r="3.49412" fill="#6BB42F" fill-opacity="0.25"/>
<circle cx="62.5059" cy="18.247" r="3.49412" fill="#6BB42F" fill-opacity="0.25"/>
<circle cx="3.49412" cy="33" r="3.49412" fill="#6BB42F" fill-opacity="0.25"/>
<circle cx="18.247" cy="33" r="3.49412" fill="#6BB42F" fill-opacity="0.25"/>
<circle cx="33" cy="33" r="3.49412" fill="#6BB42F" fill-opacity="0.25"/>
<circle cx="47.753" cy="33" r="3.49412" fill="#6BB42F" fill-opacity="0.25"/>
<circle cx="62.5059" cy="33" r="3.49412" fill="#6BB42F" fill-opacity="0.25"/>
<circle cx="3.49412" cy="47.7529" r="3.49412" fill="#6BB42F" fill-opacity="0.25"/>
<circle cx="18.247" cy="47.7529" r="3.49412" fill="#6BB42F" fill-opacity="0.25"/>
<circle cx="33" cy="47.7529" r="3.49412" fill="#6BB42F" fill-opacity="0.25"/>
<circle cx="47.753" cy="47.7529" r="3.49412" fill="#6BB42F" fill-opacity="0.25"/>
<circle cx="62.5059" cy="47.7529" r="3.49412" fill="#6BB42F" fill-opacity="0.25"/>
<circle cx="3.49412" cy="62.5059" r="3.49412" fill="#6BB42F" fill-opacity="0.25"/>
<circle cx="18.247" cy="62.5059" r="3.49412" fill="#6BB42F" fill-opacity="0.25"/>
<circle cx="33" cy="62.5059" r="3.49412" fill="#6BB42F" fill-opacity="0.25"/>
<circle cx="47.753" cy="62.5059" r="3.49412" fill="#6BB42F" fill-opacity="0.25"/>
<circle cx="62.5059" cy="62.5059" r="3.49412" fill="#6BB42F" fill-opacity="0.25"/>
<circle cx="62.4941" cy="62.4941" r="3.49412" fill="#6BB42F" fill-opacity="0.25"/>
<circle cx="77.247" cy="62.4941" r="3.49412" fill="#6BB42F" fill-opacity="0.25"/>
<circle cx="92" cy="62.4941" r="3.49412" fill="#6BB42F" fill-opacity="0.25"/>
<circle cx="106.753" cy="62.4941" r="3.49412" fill="#6BB42F" fill-opacity="0.25"/>
<circle cx="121.506" cy="62.4941" r="3.49412" fill="#6BB42F" fill-opacity="0.25"/>
<circle cx="62.4941" cy="77.247" r="3.49412" fill="#6BB42F" fill-opacity="0.25"/>
<circle cx="77.247" cy="77.247" r="3.49412" fill="#6BB42F" fill-opacity="0.25"/>
<circle cx="92" cy="77.247" r="3.49412" fill="#6BB42F" fill-opacity="0.25"/>
<circle cx="106.753" cy="77.247" r="3.49412" fill="#6BB42F" fill-opacity="0.25"/>
<circle cx="121.506" cy="77.247" r="3.49412" fill="#6BB42F" fill-opacity="0.25"/>
<circle cx="62.4941" cy="92" r="3.49412" fill="#6BB42F" fill-opacity="0.25"/>
<circle cx="77.247" cy="92" r="3.49412" fill="#6BB42F" fill-opacity="0.25"/>
<circle cx="92" cy="92" r="3.49412" fill="#6BB42F" fill-opacity="0.25"/>
<circle cx="106.753" cy="92" r="3.49412" fill="#6BB42F" fill-opacity="0.25"/>
<circle cx="121.506" cy="92" r="3.49412" fill="#6BB42F" fill-opacity="0.25"/>
<circle cx="62.4941" cy="106.753" r="3.49412" fill="#6BB42F" fill-opacity="0.25"/>
<circle cx="77.247" cy="106.753" r="3.49412" fill="#6BB42F" fill-opacity="0.25"/>
<circle cx="92" cy="106.753" r="3.49412" fill="#6BB42F" fill-opacity="0.25"/>
<circle cx="106.753" cy="106.753" r="3.49412" fill="#6BB42F" fill-opacity="0.25"/>
<circle cx="121.506" cy="106.753" r="3.49412" fill="#6BB42F" fill-opacity="0.25"/>
<circle cx="62.4941" cy="121.506" r="3.49412" fill="#6BB42F" fill-opacity="0.25"/>
<circle cx="77.247" cy="121.506" r="3.49412" fill="#6BB42F" fill-opacity="0.25"/>
<circle cx="92" cy="121.506" r="3.49412" fill="#6BB42F" fill-opacity="0.25"/>
<circle cx="106.753" cy="121.506" r="3.49412" fill="#6BB42F" fill-opacity="0.25"/>
<circle cx="121.506" cy="121.506" r="3.49412" fill="#6BB42F" fill-opacity="0.25"/>
<circle cx="3.49412" cy="121.494" r="3.49412" fill="#6BB42F" fill-opacity="0.25"/>
<circle cx="18.247" cy="121.494" r="3.49412" fill="#6BB42F" fill-opacity="0.25"/>
<circle cx="33" cy="121.494" r="3.49412" fill="#6BB42F" fill-opacity="0.25"/>
<circle cx="47.753" cy="121.494" r="3.49412" fill="#6BB42F" fill-opacity="0.25"/>
<circle cx="62.5059" cy="121.494" r="3.49412" fill="#6BB42F" fill-opacity="0.25"/>
<circle cx="3.49412" cy="136.247" r="3.49412" fill="#6BB42F" fill-opacity="0.25"/>
<circle cx="18.247" cy="136.247" r="3.49412" fill="#6BB42F" fill-opacity="0.25"/>
<circle cx="33" cy="136.247" r="3.49412" fill="#6BB42F" fill-opacity="0.25"/>
<circle cx="47.753" cy="136.247" r="3.49412" fill="#6BB42F" fill-opacity="0.25"/>
<circle cx="62.5059" cy="136.247" r="3.49412" fill="#6BB42F" fill-opacity="0.25"/>
<circle cx="3.49412" cy="151" r="3.49412" fill="#6BB42F" fill-opacity="0.25"/>
<circle cx="18.247" cy="151" r="3.49412" fill="#6BB42F" fill-opacity="0.25"/>
<circle cx="33" cy="151" r="3.49412" fill="#6BB42F" fill-opacity="0.25"/>
<circle cx="47.753" cy="151" r="3.49412" fill="#6BB42F" fill-opacity="0.25"/>
<circle cx="62.5059" cy="151" r="3.49412" fill="#6BB42F" fill-opacity="0.25"/>
<circle cx="3.49412" cy="165.753" r="3.49412" fill="#6BB42F" fill-opacity="0.25"/>
<circle cx="18.247" cy="165.753" r="3.49412" fill="#6BB42F" fill-opacity="0.25"/>
<circle cx="33" cy="165.753" r="3.49412" fill="#6BB42F" fill-opacity="0.25"/>
<circle cx="47.753" cy="165.753" r="3.49412" fill="#6BB42F" fill-opacity="0.25"/>
<circle cx="62.5059" cy="165.753" r="3.49412" fill="#6BB42F" fill-opacity="0.25"/>
<circle cx="3.49412" cy="180.506" r="3.49412" fill="#6BB42F" fill-opacity="0.25"/>
<circle cx="18.247" cy="180.506" r="3.49412" fill="#6BB42F" fill-opacity="0.25"/>
<circle cx="33" cy="180.506" r="3.49412" fill="#6BB42F" fill-opacity="0.25"/>
<circle cx="47.753" cy="180.506" r="3.49412" fill="#6BB42F" fill-opacity="0.25"/>
<circle cx="62.5059" cy="180.506" r="3.49412" fill="#6BB42F" fill-opacity="0.25"/>
</svg>
