<svg width="125" height="184" viewBox="0 0 125 184" fill="none" xmlns="http://www.w3.org/2000/svg">
<circle cx="3.49412" cy="3.49412" r="3.49412" transform="matrix(-1 0 0 1 125 0)" fill="#6BB42F" fill-opacity="0.25"/>
<circle cx="3.49412" cy="3.49412" r="3.49412" transform="matrix(-1 0 0 1 110.247 0)" fill="#6BB42F" fill-opacity="0.25"/>
<circle cx="3.49412" cy="3.49412" r="3.49412" transform="matrix(-1 0 0 1 95.4941 0)" fill="#6BB42F" fill-opacity="0.25"/>
<circle cx="3.49412" cy="3.49412" r="3.49412" transform="matrix(-1 0 0 1 80.7412 0)" fill="#6BB42F" fill-opacity="0.25"/>
<circle cx="3.49412" cy="3.49412" r="3.49412" transform="matrix(-1 0 0 1 65.9883 0)" fill="#6BB42F" fill-opacity="0.25"/>
<circle cx="3.49412" cy="3.49412" r="3.49412" transform="matrix(-1 0 0 1 125 14.7529)" fill="#6BB42F" fill-opacity="0.25"/>
<circle cx="3.49412" cy="3.49412" r="3.49412" transform="matrix(-1 0 0 1 110.247 14.7529)" fill="#6BB42F" fill-opacity="0.25"/>
<circle cx="3.49412" cy="3.49412" r="3.49412" transform="matrix(-1 0 0 1 95.4941 14.7529)" fill="#6BB42F" fill-opacity="0.25"/>
<circle cx="3.49412" cy="3.49412" r="3.49412" transform="matrix(-1 0 0 1 80.7412 14.7529)" fill="#6BB42F" fill-opacity="0.25"/>
<circle cx="3.49412" cy="3.49412" r="3.49412" transform="matrix(-1 0 0 1 65.9883 14.7529)" fill="#6BB42F" fill-opacity="0.25"/>
<circle cx="3.49412" cy="3.49412" r="3.49412" transform="matrix(-1 0 0 1 125 29.5059)" fill="#6BB42F" fill-opacity="0.25"/>
<circle cx="3.49412" cy="3.49412" r="3.49412" transform="matrix(-1 0 0 1 110.247 29.5059)" fill="#6BB42F" fill-opacity="0.25"/>
<circle cx="3.49412" cy="3.49412" r="3.49412" transform="matrix(-1 0 0 1 95.4941 29.5059)" fill="#6BB42F" fill-opacity="0.25"/>
<circle cx="3.49412" cy="3.49412" r="3.49412" transform="matrix(-1 0 0 1 80.7412 29.5059)" fill="#6BB42F" fill-opacity="0.25"/>
<circle cx="3.49412" cy="3.49412" r="3.49412" transform="matrix(-1 0 0 1 65.9883 29.5059)" fill="#6BB42F" fill-opacity="0.25"/>
<circle cx="3.49412" cy="3.49412" r="3.49412" transform="matrix(-1 0 0 1 125 44.2588)" fill="#6BB42F" fill-opacity="0.25"/>
<circle cx="3.49412" cy="3.49412" r="3.49412" transform="matrix(-1 0 0 1 110.247 44.2588)" fill="#6BB42F" fill-opacity="0.25"/>
<circle cx="3.49412" cy="3.49412" r="3.49412" transform="matrix(-1 0 0 1 95.4941 44.2588)" fill="#6BB42F" fill-opacity="0.25"/>
<circle cx="3.49412" cy="3.49412" r="3.49412" transform="matrix(-1 0 0 1 80.7412 44.2588)" fill="#6BB42F" fill-opacity="0.25"/>
<circle cx="3.49412" cy="3.49412" r="3.49412" transform="matrix(-1 0 0 1 65.9883 44.2588)" fill="#6BB42F" fill-opacity="0.25"/>
<circle cx="3.49412" cy="3.49412" r="3.49412" transform="matrix(-1 0 0 1 125 59.0118)" fill="#6BB42F" fill-opacity="0.25"/>
<circle cx="3.49412" cy="3.49412" r="3.49412" transform="matrix(-1 0 0 1 110.247 59.0118)" fill="#6BB42F" fill-opacity="0.25"/>
<circle cx="3.49412" cy="3.49412" r="3.49412" transform="matrix(-1 0 0 1 95.4941 59.0118)" fill="#6BB42F" fill-opacity="0.25"/>
<circle cx="3.49412" cy="3.49412" r="3.49412" transform="matrix(-1 0 0 1 80.7412 59.0118)" fill="#6BB42F" fill-opacity="0.25"/>
<circle cx="3.49412" cy="3.49412" r="3.49412" transform="matrix(-1 0 0 1 65.9883 59.0118)" fill="#6BB42F" fill-opacity="0.25"/>
<circle cx="3.49412" cy="3.49412" r="3.49412" transform="matrix(-1 0 0 1 66 59)" fill="#6BB42F" fill-opacity="0.25"/>
<circle cx="3.49412" cy="3.49412" r="3.49412" transform="matrix(-1 0 0 1 51.2471 59)" fill="#6BB42F" fill-opacity="0.25"/>
<circle cx="3.49412" cy="3.49412" r="3.49412" transform="matrix(-1 0 0 1 36.4941 59)" fill="#6BB42F" fill-opacity="0.25"/>
<circle cx="3.49412" cy="3.49412" r="3.49412" transform="matrix(-1 0 0 1 21.7412 59)" fill="#6BB42F" fill-opacity="0.25"/>
<circle cx="3.49412" cy="3.49412" r="3.49412" transform="matrix(-1 0 0 1 6.98828 59)" fill="#6BB42F" fill-opacity="0.25"/>
<circle cx="3.49412" cy="3.49412" r="3.49412" transform="matrix(-1 0 0 1 66 73.7529)" fill="#6BB42F" fill-opacity="0.25"/>
<circle cx="3.49412" cy="3.49412" r="3.49412" transform="matrix(-1 0 0 1 51.2471 73.7529)" fill="#6BB42F" fill-opacity="0.25"/>
<circle cx="3.49412" cy="3.49412" r="3.49412" transform="matrix(-1 0 0 1 36.4941 73.7529)" fill="#6BB42F" fill-opacity="0.25"/>
<circle cx="3.49412" cy="3.49412" r="3.49412" transform="matrix(-1 0 0 1 21.7412 73.7529)" fill="#6BB42F" fill-opacity="0.25"/>
<circle cx="3.49412" cy="3.49412" r="3.49412" transform="matrix(-1 0 0 1 6.98828 73.7529)" fill="#6BB42F" fill-opacity="0.25"/>
<circle cx="3.49412" cy="3.49412" r="3.49412" transform="matrix(-1 0 0 1 66 88.5059)" fill="#6BB42F" fill-opacity="0.25"/>
<circle cx="3.49412" cy="3.49412" r="3.49412" transform="matrix(-1 0 0 1 51.2471 88.5059)" fill="#6BB42F" fill-opacity="0.25"/>
<circle cx="3.49412" cy="3.49412" r="3.49412" transform="matrix(-1 0 0 1 36.4941 88.5059)" fill="#6BB42F" fill-opacity="0.25"/>
<circle cx="3.49412" cy="3.49412" r="3.49412" transform="matrix(-1 0 0 1 21.7412 88.5059)" fill="#6BB42F" fill-opacity="0.25"/>
<circle cx="3.49412" cy="3.49412" r="3.49412" transform="matrix(-1 0 0 1 6.98828 88.5059)" fill="#6BB42F" fill-opacity="0.25"/>
<circle cx="3.49412" cy="3.49412" r="3.49412" transform="matrix(-1 0 0 1 66 103.259)" fill="#6BB42F" fill-opacity="0.25"/>
<circle cx="3.49412" cy="3.49412" r="3.49412" transform="matrix(-1 0 0 1 51.2471 103.259)" fill="#6BB42F" fill-opacity="0.25"/>
<circle cx="3.49412" cy="3.49412" r="3.49412" transform="matrix(-1 0 0 1 36.4941 103.259)" fill="#6BB42F" fill-opacity="0.25"/>
<circle cx="3.49412" cy="3.49412" r="3.49412" transform="matrix(-1 0 0 1 21.7412 103.259)" fill="#6BB42F" fill-opacity="0.25"/>
<circle cx="3.49412" cy="3.49412" r="3.49412" transform="matrix(-1 0 0 1 6.98828 103.259)" fill="#6BB42F" fill-opacity="0.25"/>
<circle cx="3.49412" cy="3.49412" r="3.49412" transform="matrix(-1 0 0 1 66 118.012)" fill="#6BB42F" fill-opacity="0.25"/>
<circle cx="3.49412" cy="3.49412" r="3.49412" transform="matrix(-1 0 0 1 51.2471 118.012)" fill="#6BB42F" fill-opacity="0.25"/>
<circle cx="3.49412" cy="3.49412" r="3.49412" transform="matrix(-1 0 0 1 36.4941 118.012)" fill="#6BB42F" fill-opacity="0.25"/>
<circle cx="3.49412" cy="3.49412" r="3.49412" transform="matrix(-1 0 0 1 21.7412 118.012)" fill="#6BB42F" fill-opacity="0.25"/>
<circle cx="3.49412" cy="3.49412" r="3.49412" transform="matrix(-1 0 0 1 6.98828 118.012)" fill="#6BB42F" fill-opacity="0.25"/>
<circle cx="3.49412" cy="3.49412" r="3.49412" transform="matrix(-1 0 0 1 125 118)" fill="#6BB42F" fill-opacity="0.25"/>
<circle cx="3.49412" cy="3.49412" r="3.49412" transform="matrix(-1 0 0 1 110.247 118)" fill="#6BB42F" fill-opacity="0.25"/>
<circle cx="3.49412" cy="3.49412" r="3.49412" transform="matrix(-1 0 0 1 95.4941 118)" fill="#6BB42F" fill-opacity="0.25"/>
<circle cx="3.49412" cy="3.49412" r="3.49412" transform="matrix(-1 0 0 1 80.7412 118)" fill="#6BB42F" fill-opacity="0.25"/>
<circle cx="3.49412" cy="3.49412" r="3.49412" transform="matrix(-1 0 0 1 65.9883 118)" fill="#6BB42F" fill-opacity="0.25"/>
<circle cx="3.49412" cy="3.49412" r="3.49412" transform="matrix(-1 0 0 1 125 132.753)" fill="#6BB42F" fill-opacity="0.25"/>
<circle cx="3.49412" cy="3.49412" r="3.49412" transform="matrix(-1 0 0 1 110.247 132.753)" fill="#6BB42F" fill-opacity="0.25"/>
<circle cx="3.49412" cy="3.49412" r="3.49412" transform="matrix(-1 0 0 1 95.4941 132.753)" fill="#6BB42F" fill-opacity="0.25"/>
<circle cx="3.49412" cy="3.49412" r="3.49412" transform="matrix(-1 0 0 1 80.7412 132.753)" fill="#6BB42F" fill-opacity="0.25"/>
<circle cx="3.49412" cy="3.49412" r="3.49412" transform="matrix(-1 0 0 1 65.9883 132.753)" fill="#6BB42F" fill-opacity="0.25"/>
<circle cx="3.49412" cy="3.49412" r="3.49412" transform="matrix(-1 0 0 1 125 147.506)" fill="#6BB42F" fill-opacity="0.25"/>
<circle cx="3.49412" cy="3.49412" r="3.49412" transform="matrix(-1 0 0 1 110.247 147.506)" fill="#6BB42F" fill-opacity="0.25"/>
<circle cx="3.49412" cy="3.49412" r="3.49412" transform="matrix(-1 0 0 1 95.4941 147.506)" fill="#6BB42F" fill-opacity="0.25"/>
<circle cx="3.49412" cy="3.49412" r="3.49412" transform="matrix(-1 0 0 1 80.7412 147.506)" fill="#6BB42F" fill-opacity="0.25"/>
<circle cx="3.49412" cy="3.49412" r="3.49412" transform="matrix(-1 0 0 1 65.9883 147.506)" fill="#6BB42F" fill-opacity="0.25"/>
<circle cx="3.49412" cy="3.49412" r="3.49412" transform="matrix(-1 0 0 1 125 162.259)" fill="#6BB42F" fill-opacity="0.25"/>
<circle cx="3.49412" cy="3.49412" r="3.49412" transform="matrix(-1 0 0 1 110.247 162.259)" fill="#6BB42F" fill-opacity="0.25"/>
<circle cx="3.49412" cy="3.49412" r="3.49412" transform="matrix(-1 0 0 1 95.4941 162.259)" fill="#6BB42F" fill-opacity="0.25"/>
<circle cx="3.49412" cy="3.49412" r="3.49412" transform="matrix(-1 0 0 1 80.7412 162.259)" fill="#6BB42F" fill-opacity="0.25"/>
<circle cx="3.49412" cy="3.49412" r="3.49412" transform="matrix(-1 0 0 1 65.9883 162.259)" fill="#6BB42F" fill-opacity="0.25"/>
<circle cx="3.49412" cy="3.49412" r="3.49412" transform="matrix(-1 0 0 1 125 177.012)" fill="#6BB42F" fill-opacity="0.25"/>
<circle cx="3.49412" cy="3.49412" r="3.49412" transform="matrix(-1 0 0 1 110.247 177.012)" fill="#6BB42F" fill-opacity="0.25"/>
<circle cx="3.49412" cy="3.49412" r="3.49412" transform="matrix(-1 0 0 1 95.4941 177.012)" fill="#6BB42F" fill-opacity="0.25"/>
<circle cx="3.49412" cy="3.49412" r="3.49412" transform="matrix(-1 0 0 1 80.7412 177.012)" fill="#6BB42F" fill-opacity="0.25"/>
<circle cx="3.49412" cy="3.49412" r="3.49412" transform="matrix(-1 0 0 1 65.9883 177.012)" fill="#6BB42F" fill-opacity="0.25"/>
</svg>
